<svg width="134" height="45" viewBox="0 0 134 45" fill="none" xmlns="http://www.w3.org/2000/svg">
<g clip-path="url(#clip0_1690_4544)">
<path d="M133.157 41.9102V45.0078H1.28424V41.9102H133.165H133.157Z" fill="#FF0000"/>
<path d="M19.8936 35.1255V20.5051C19.8936 17.8454 19.1372 15.8386 17.6245 14.4929C16.1118 13.1471 13.9531 12.4702 11.1562 12.4702C8.16227 12.4702 5.85383 13.163 4.22295 14.5406C2.59207 15.9183 1.61512 17.8613 1.28421 20.3538H3.70296C3.96295 18.4585 4.70355 17.0172 5.92474 16.0377C7.13805 15.0583 8.88711 14.5645 11.1562 14.5645C13.1967 14.5645 14.7567 15.0423 15.844 15.9899C16.9312 16.9376 17.4748 18.3948 17.4748 20.3538V21.0545C17.4748 21.6518 17.3724 22.1375 17.1518 22.5038C16.9391 22.8701 16.5609 23.1568 16.0173 23.3798C15.4737 23.5948 14.7252 23.7779 13.7719 23.9292C12.8186 24.0805 11.5816 24.2239 10.0689 24.3513C8.72165 24.4867 7.44531 24.6858 6.24776 24.9485C5.04233 25.2193 3.97871 25.6254 3.04115 26.1749C2.10359 26.7243 1.363 27.4808 0.819374 28.4444C0.275747 29.4079 0.00787354 30.6581 0.00787354 32.1871C0.00787354 33.3816 0.220597 34.4327 0.646044 35.3325C1.07149 36.2324 1.66239 36.9889 2.42662 37.6021C3.18297 38.2152 4.06538 38.685 5.06596 38.9956C6.07443 39.3141 7.16168 39.4654 8.35136 39.4654C9.66709 39.4654 10.8095 39.3141 11.7786 39.0195C12.7476 38.7169 13.5907 38.3506 14.2997 37.8967C15.0088 37.4508 15.6076 36.9491 16.1039 36.3996C16.6003 35.8501 17.0257 35.3325 17.3882 34.8309H17.5379V35.4281C17.5379 36.2563 17.5773 36.9491 17.6639 37.4985C17.7427 38.048 17.9003 38.486 18.1366 38.8204H20.7051V38.6691C20.5081 38.5019 20.3269 38.1515 20.1614 37.618C19.996 37.0844 19.9172 36.2563 19.9172 35.1255H19.8936ZM17.4748 29.6389C17.4748 30.6024 17.2857 31.55 16.9076 32.4817C16.5294 33.4134 15.9621 34.2416 15.2058 34.9742C14.4494 35.7068 13.5198 36.2881 12.4167 36.7181C11.3137 37.1481 10.0374 37.3632 8.58772 37.3632C7.76046 37.3632 6.98047 37.2756 6.23988 37.0924C5.49929 36.9093 4.84536 36.6067 4.28598 36.1926C3.72659 35.7785 3.28539 35.2449 2.95449 34.5999C2.62358 33.9549 2.45813 33.1745 2.45813 32.2826C2.45813 31.0563 2.6551 30.0768 3.04903 29.3601C3.44296 28.6435 3.99447 28.0781 4.70355 27.664C5.41262 27.2499 6.25564 26.9553 7.22471 26.788C8.19379 26.6208 9.24165 26.4695 10.3604 26.3421C11.6761 26.1749 12.9682 25.9917 14.2367 25.7926C15.5052 25.5936 16.5845 25.2591 17.467 24.7972V29.6389H17.4748Z" fill="#003FB0"/>
<path d="M26.9528 0.844238H23.8959V38.8127H26.9528V0.844238Z" fill="#003FB0"/>
<path d="M47.3428 28.8824C47.3428 29.9176 47.1852 30.8652 46.8701 31.7253C46.5549 32.5933 46.1137 33.3498 45.5386 33.9948C44.9634 34.6398 44.2622 35.1494 43.4429 35.5158C42.6156 35.8821 41.7017 36.0652 40.6774 36.0652C38.8654 36.0652 37.463 35.6033 36.4545 34.6955C35.4539 33.7798 34.9497 32.4738 34.9497 30.7777V13.3701H30.9552V30.8812C30.9552 33.5727 31.7273 35.6671 33.2715 37.1641C34.8157 38.6612 36.9115 39.4098 39.5429 39.4098C41.418 39.4098 42.9386 39.0355 44.1047 38.2869C45.2707 37.5384 46.3186 36.535 47.2404 35.2689H47.3428V38.8125H51.3373V13.3701H47.3428V28.8824Z" fill="#003FB0"/>
<path d="M117.51 15.2415C116.754 14.3894 115.832 13.7285 114.745 13.2427C113.657 12.7649 112.428 12.5181 111.042 12.5181C109.269 12.5181 107.756 12.8764 106.527 13.5931C105.29 14.3098 104.195 15.3609 103.25 16.7624H103.1V13.3701H95.3474V38.8125H103.391V24.6938C103.391 23.1011 103.793 21.8031 104.597 20.7998C105.401 19.8044 106.48 19.3027 107.827 19.3027C109.174 19.3027 110.128 19.7168 110.789 20.5529C111.443 21.3811 111.774 22.48 111.774 23.8417V38.8046H119.818V22.1933C119.818 20.76 119.621 19.454 119.228 18.2755C118.834 17.0969 118.258 16.0776 117.502 15.2335L117.51 15.2415Z" fill="#003FB0"/>
<path d="M133.157 13.3701H123.829V38.8125H133.157V13.3701Z" fill="#003FB0"/>
<path d="M83.0803 12.5181C81.4809 12.5181 80.0391 12.9162 78.747 13.7125C77.4549 14.5089 76.3913 15.6078 75.5404 17.0093H75.4459C74.8235 15.6476 73.9096 14.5566 72.7041 13.7444C71.4987 12.9322 70.0963 12.5181 68.4969 12.5181C66.7321 12.5181 65.2509 12.9162 64.0376 13.7125C62.8322 14.5089 61.8867 15.4883 61.2013 16.6589H61.0595V13.3701H55.3475V38.8125H61.0595V23.4993C61.0595 21.6041 61.5165 20.0831 62.4383 18.9523C63.3601 17.8136 64.5891 17.2482 66.1412 17.2482C67.5436 17.2482 68.6151 17.6623 69.3715 18.4745C70.1278 19.2947 70.506 20.5211 70.506 22.1615V38.8125H76.218V23.4993C76.218 21.6041 76.675 20.0831 77.5968 18.9523C78.5186 17.8136 79.7555 17.2482 81.2997 17.2482C82.7021 17.2482 83.7736 17.6623 84.53 18.4745C85.2863 19.2947 85.6645 20.5211 85.6645 22.1615V38.8125H91.3686V21.5961C91.3686 18.7692 90.6517 16.5474 89.2178 14.9389C87.7839 13.3223 85.7433 12.5181 83.0961 12.5181H83.0803Z" fill="#003FB0"/>
<path d="M128.493 11.1246C131.534 11.1246 133.992 8.6321 133.992 5.56627C133.992 2.50044 131.526 0 128.493 0C125.46 0 122.986 2.49248 122.986 5.56627C122.986 8.64006 125.452 11.1246 128.493 11.1246Z" fill="#003FB0"/>
</g>
<defs>
<clipPath id="clip0_1690_4544">
<rect width="134" height="45" fill="white"/>
</clipPath>
</defs>
</svg>
